<?xml version="1.0" encoding="UTF-8"?>
<svg width="100px" height="46px" viewBox="0 0 100 46" version="1.1" xmlns="http://www.w3.org/2000/svg" xmlns:xlink="http://www.w3.org/1999/xlink">
    <!-- Generator: Sketch 56.3 (81716) - https://sketch.com -->
    <title>Vizio</title>
    <desc>Created with Sketch.</desc>
    <g id="Vizio" stroke="none" stroke-width="1" fill="none" fill-rule="evenodd">
        <path d="M67.8619087,19.8673179 L67.8619087,26.6329032 C67.8635611,27.5335369 68.6422772,28.2628425 69.6036931,28.2643899 L77.4043094,28.2643899 C78.3661973,28.2628425 79.1446775,27.5335369 79.1465658,26.6329032 L79.1465658,19.8673179 C79.1446775,18.9666841 78.3661973,18.2373786 77.4043094,18.2356101 L69.6036931,18.2356101 C68.6422772,18.2373786 67.8635611,18.9666841 67.8619087,19.8673179 Z M69.6036931,30 C67.6178371,29.9993368 66.0091827,28.4929749 66.0084746,26.6329032 L66.0084746,19.8673179 C66.0091827,18.0072461 67.6178371,16.5006632 69.6036931,16.5 L77.4043094,16.5 C79.3904015,16.5006632 80.9992919,18.0072461 81,19.8673179 L81,26.6329032 C80.9992919,28.4929749 79.3904015,29.9993368 77.4043094,30 L69.6036931,30 Z M60.8389831,30 L60.8389831,16 L62.9067797,16 L62.9067797,30 L60.8389831,30 Z M37.059322,30 L37.059322,16 L39.1271186,16 L39.1271186,30 L37.059322,30 Z M34.4743481,16 L34.4745763,16 L34.4745763,20.5782086 L34.4713821,20.6141003 C34.4691006,20.643038 34.4467414,20.9167121 34.3595864,21.2935747 C34.2712906,21.6634834 34.1328009,22.1334402 33.8325496,22.5924051 L30.3255871,28.4627143 C30.2452767,28.6168242 30.0335494,28.9571223 29.5945802,29.2841852 C29.1154558,29.6453453 28.3664246,29.9607435 27.3488557,29.9979811 C27.312351,29.999327 27.2744773,29.9995514 27.2372881,30 C27.200099,29.9995514 27.1624535,29.999327 27.1259488,29.9979811 C26.1081516,29.9607435 25.3593486,29.6453453 24.8799961,29.2841852 C24.4410269,28.9571223 24.2292995,28.6168242 24.1489891,28.4627143 L20.6422549,22.5924051 C20.3420036,22.1334402 20.2032856,21.6634834 20.1149899,21.2935747 C20.028063,20.9167121 20.0057039,20.643038 20.0031942,20.6141003 L20,20.5782086 L20,16 L21.7916971,16 L21.7916971,20.5012658 C21.7937505,20.5203333 21.7971728,20.5477007 21.8019641,20.5811248 C21.8131436,20.6600865 21.8320804,20.7747156 21.8617405,20.9032527 C21.918551,21.1598782 22.0305748,21.4721359 22.1510404,21.6432943 L22.1647297,21.6632591 L25.7358035,27.6407947 L25.745386,27.6621054 C25.7492646,27.6679378 25.755653,27.677808 25.7650073,27.6901458 C25.7958082,27.7314212 25.8567254,27.8023073 25.9614483,27.8801474 C26.1615398,28.0246114 26.5183734,28.2161833 27.2372881,28.238167 C27.9562029,28.2161833 28.3130365,28.0246114 28.5133561,27.8801474 C28.6178509,27.8023073 28.6787681,27.7314212 28.7097971,27.6901458 C28.7189233,27.677808 28.7253116,27.6679378 28.7291903,27.6621054 L28.7387727,27.6407947 L32.3100748,21.6632591 L32.3235359,21.6432943 C32.4440014,21.4721359 32.5560253,21.1598782 32.6128357,20.9032527 C32.6424958,20.7747156 32.6616608,20.6600865 32.6728404,20.5811248 C32.6774035,20.5477007 32.6808258,20.5203333 32.6831073,20.5012658 L32.6831073,16 L34.4743481,16 Z M44.7400335,28.2446573 L57.7372881,28.2446573 L57.7372881,30 L42.7496462,30 L42.7496462,28.2740604 C42.7489609,28.2658806 42.7487324,28.2546057 42.7482755,28.2446573 C42.7469049,28.2143699 42.7459912,28.1794399 42.7457627,28.1354458 C42.7466765,27.8915991 42.7756882,27.4352985 42.9616374,26.8852616 C43.0381644,26.6575534 43.1414187,26.4143699 43.2812233,26.1627856 C43.3874473,25.9700074 43.5162868,25.7743552 43.6693408,25.5806927 C44.1182231,25.0129698 44.7765837,24.4609433 45.6921665,24.040678 L53.4268762,21.1293294 L53.763595,21.0026529 C54.8075604,20.6137804 55.0762044,19.9390567 55.3297715,19.4953574 C55.6162338,18.9855564 55.6466161,18.5122329 55.6457024,18.3645542 C55.6457024,18.3322771 55.6445602,18.3201179 55.6445602,18.3201179 L55.6415905,18.2907148 L55.6415905,18.2551216 L43.6629445,18.2551216 L43.6629445,16.5 L57.4355205,16.5 L57.4355205,18.2254974 C57.4359773,18.2336772 57.4364342,18.2451732 57.4368911,18.2551216 C57.4382617,18.285409 57.4391755,18.320339 57.4391755,18.3645542 C57.4387186,18.6081798 57.4094784,19.0642594 57.2235292,19.6147384 C57.1467738,19.8422255 57.0437479,20.085409 56.9039434,20.3369934 C56.7993184,20.5271186 56.6725348,20.7201179 56.5224505,20.9111275 C56.1315917,21.407885 55.5792267,21.8920413 54.8361152,22.2877671 C54.7255508,22.3467944 54.6120168,22.4042741 54.4927717,22.459101 L53.9691899,22.6563007 L46.0323119,25.6436993 C45.6240917,25.8753869 45.3782916,26.1411201 45.2033074,26.3975682 C45.2033074,26.3975682 44.648658,27.4673545 44.7400335,28.2446573 Z" id="Combined-Shape" fill="#FFFFFF"></path>
    </g>
</svg>