<?xml version="1.0" encoding="UTF-8"?>
<svg width="100px" height="46px" viewBox="0 0 100 46" version="1.1" xmlns="http://www.w3.org/2000/svg" xmlns:xlink="http://www.w3.org/1999/xlink">
    <!-- Generator: Sketch 56.3 (81716) - https://sketch.com -->
    <title>Chromecast</title>
    <desc>Created with Sketch.</desc>
    <g id="Chromecast" stroke="none" stroke-width="1" fill="none" fill-rule="evenodd">
        <path d="M27.4025931,23.7400279 C27.4025931,21.6960111 28.8594786,20.1329951 30.9231611,20.1329951 C32.5622765,20.1329951 33.4724722,21.0949965 33.8979934,22.0569979 L32.7445065,22.5984781 C32.4411079,21.8169701 31.7732495,21.3359694 30.8630539,21.3359694 C29.7706283,21.3359694 28.73831,22.2979708 28.73831,23.8014523 C28.73831,25.2444544 29.7706283,26.2669352 30.8630539,26.2669352 C31.8343109,26.2669352 32.5021693,25.7859345 32.8666292,25.0044265 L34.0201161,25.4854272 C33.5955489,26.4474286 32.624292,27.40943 30.9851766,27.40943 C28.8594786,27.3480056 27.4025931,25.7840446 27.4025931,23.7400279 L27.4025931,23.7400279 Z M36.2049673,20.373023 L36.1439059,21.3350244 L36.2049673,21.3350244 C36.5694271,20.7340097 37.4185614,20.1925296 38.3898184,20.1925296 C40.1501024,20.1925296 41.0001908,21.3350244 41.0001908,23.0180543 L41.0001908,27.1665672 L39.7255353,27.1665672 L39.7255353,23.1994927 C39.7255353,21.8169701 38.9975696,21.3359694 38.0263126,21.3359694 C36.933887,21.3359694 36.2049673,22.3584502 36.2049673,23.4404655 L36.2049673,27.1684572 L34.9303117,27.1684572 L34.9303117,17.3065254 L36.2049673,17.3065254 L36.2049673,20.373023 Z M42.3359077,27.1675122 L42.3359077,20.373023 L43.5495019,20.373023 L43.5495019,21.4550383 L43.6105632,21.4550383 C43.9139618,20.6735303 44.8852187,20.1925296 45.6141385,20.1925296 C46.0387057,20.1925296 46.2819969,20.2530091 46.5853955,20.373023 L46.099767,21.5750522 C45.9175371,21.5145728 45.6751999,21.4550383 45.4319086,21.4550383 C44.5818202,21.4550383 43.6716246,22.1760668 43.6716246,23.4395205 L43.6716246,27.1675122 L42.3359077,27.1675122 Z M53.6265316,23.7400279 C53.6265316,25.7840446 52.1696461,27.3470606 50.1059635,27.3470606 C48.042281,27.3470606 46.5853955,25.7840446 46.5853955,23.7400279 C46.5853955,21.6960111 48.042281,20.1329951 50.1059635,20.1329951 C52.1696461,20.1329951 53.6265316,21.6960111 53.6265316,23.7400279 L53.6265316,23.7400279 Z M52.351876,23.7400279 C52.351876,22.1770118 51.2594504,21.2745449 50.1059635,21.2745449 C48.9524766,21.2745449 47.860051,22.1760668 47.860051,23.7400279 C47.860051,25.3039889 48.9524766,26.2055108 50.1059635,26.2055108 C51.2594504,26.2055108 52.351876,25.3030439 52.351876,23.7400279 L52.351876,23.7400279 Z M54.6588499,20.373023 L55.8724441,20.373023 L55.8724441,21.3350244 L55.9335054,21.3350244 C56.2979653,20.6735303 57.2081609,20.1925296 58.0582493,20.1925296 C59.1506749,20.1925296 59.8795947,20.6735303 60.2431005,21.5155178 C60.728729,20.7340097 61.5788173,20.1925296 62.6101816,20.1925296 C64.249297,20.1925296 65.038324,21.3350244 65.038324,23.0180543 L65.038324,27.1665672 L63.7026072,27.1665672 L63.7026072,23.1994927 C63.7026072,21.8169701 63.1559173,21.3359694 62.1846603,21.3359694 C61.152342,21.3359694 60.4243763,22.3584502 60.4243763,23.4404655 L60.4243763,27.1684572 L59.1497208,27.1684572 L59.1497208,23.1994927 C59.1497208,21.8169701 58.603031,21.3359694 57.631774,21.3359694 C56.5994557,21.3359694 55.87149,22.3584502 55.87149,23.4404655 L55.87149,27.1684572 L54.5968345,27.1684572 L54.5968345,20.373968 L54.6588499,20.373968 L54.6588499,20.373023 Z M65.9494737,23.7400279 C65.9494737,21.8160251 67.2851906,20.1329951 69.2878118,20.1329951 C71.2913871,20.1329951 72.6261499,21.5759972 72.6261499,23.7400279 L72.6261499,23.9800557 L67.2231752,23.9800557 C67.2842365,25.4230578 68.3156008,26.2045658 69.4080264,26.2045658 C70.135992,26.2045658 70.9259732,25.9040585 71.289479,25.062071 L72.4429659,25.5430717 C72.0183987,26.5050731 71.0471418,27.406595 69.4681336,27.406595 C67.3452979,27.3480056 65.9494737,25.7840446 65.9494737,23.7400279 L65.9494737,23.7400279 Z M69.2878118,21.3350244 C68.3165549,21.3350244 67.5885892,21.9965185 67.3452979,22.9585198 L71.2913871,22.9585198 C71.2303258,22.3575052 70.7446973,21.3350244 69.2878118,21.3350244 Z M73.3550697,23.7400279 C73.3550697,21.6960111 74.8119552,20.1329951 76.8756377,20.1329951 C78.5147531,20.1329951 79.4249488,21.0949965 79.85047,22.0569979 L78.6969831,22.5379986 C78.3935845,21.7564906 77.7257261,21.2754899 76.8155305,21.2754899 C75.7231049,21.2754899 74.6907866,22.2374913 74.6907866,23.7409728 C74.6907866,25.1839749 75.7231049,26.2064558 76.8155305,26.2064558 C77.7867875,26.2064558 78.4546459,25.7254551 78.8191058,24.9439471 L79.9725927,25.4249478 C79.5480255,26.3869492 78.5767686,27.3489506 76.9376532,27.3489506 C74.8119552,27.3480056 73.3550697,25.7840446 73.3550697,23.7400279 L73.3550697,23.7400279 Z M80.639497,25.1234955 C80.639497,23.6200139 82.0353212,22.7789715 83.6143293,22.7789715 C84.524525,22.7789715 85.1923834,23.0189993 85.4356747,23.1994927 L85.4356747,22.9585198 C85.4356747,21.936039 84.5855863,21.3350244 83.6753907,21.3350244 C82.947425,21.3350244 82.2795665,21.6960111 82.0362753,22.2970258 L80.8827883,21.8160251 C81.1251255,21.2150104 81.9151067,20.1925296 83.6753907,20.1925296 C85.3145061,20.1925296 86.7103302,21.154531 86.7103302,23.0785338 L86.7103302,27.1665672 L85.496736,27.1665672 L85.496736,26.2045658 L85.4356747,26.2045658 C85.0712148,26.746046 84.3432491,27.3470614 83.1897622,27.3470614 C81.792984,27.3480056 80.639497,26.5060181 80.639497,25.1234955 L80.639497,25.1234955 Z M85.4356747,24.2210285 C85.4356747,24.2210285 84.8889849,23.8005073 83.7965593,23.8005073 C82.4608424,23.8005073 81.9151067,24.5215359 81.9151067,25.1234955 C81.9151067,25.844524 82.6430723,26.2055108 83.3109308,26.2055108 C84.4033564,26.2055108 85.4356747,25.3635233 85.4356747,24.2210285 Z M87.4993572,25.4240028 L88.6528442,24.9430021 C89.0173041,25.7849896 89.6851625,26.2055108 90.4741895,26.2055108 C91.2632166,26.2055108 91.8099064,25.844524 91.8099064,25.2435094 C91.8099064,24.8825226 91.6276765,24.5224809 90.8997108,24.3419875 L89.5038866,24.0414802 C88.8970895,23.8609868 87.6825413,23.3799861 87.6825413,22.1779568 C87.6825413,20.9759276 88.9571968,20.1934746 90.3530209,20.1934746 C91.5065079,20.1934746 92.5378721,20.7349547 92.9633933,21.7564906 L91.8709677,22.2374913 C91.6286305,21.5759972 90.9607721,21.3359694 90.2929137,21.3359694 C89.564948,21.3359694 88.9571968,21.6364767 88.9571968,22.1779568 C88.9571968,22.5984781 89.3216567,22.8394509 89.8673924,22.9594648 L91.2031093,23.2599721 C92.5388262,23.5604795 93.0845619,24.4024669 93.0845619,25.2444544 C93.0845619,26.4464836 91.9921363,27.3489506 90.4140823,27.3489506 C88.8360282,27.3489506 87.8638171,26.3860042 87.4993572,25.4240028 L87.4993572,25.4240028 Z M94.7837846,25.063016 L94.7837846,21.5155178 L93.5701904,21.5155178 L93.5701904,20.373023 L94.7837846,20.373023 L94.7837846,18.3290063 L96.0584401,18.3290063 L96.0584401,20.373023 L97.6975555,20.373023 L97.6975555,21.5155178 L96.0584401,21.5155178 L96.0584401,24.9430021 C96.0584401,25.7245101 96.3618387,26.0250174 96.9686358,26.0250174 C97.211927,26.0250174 97.3932029,26.0250174 97.5754329,25.9050035 L98,26.9870188 C97.6966015,27.1070327 97.3932029,27.1675122 96.9676817,27.1675122 C95.5728116,27.2270467 94.7837846,26.4455386 94.7837846,25.063016 L94.7837846,25.063016 Z M21.3928213,19.8324878 L14.8373137,19.8324878 C16.0509079,20.6139958 16.9009963,21.936984 16.9009963,23.5 C16.9009963,23.8005073 16.8399349,24.1614941 16.7798277,24.4620014 L16.7798277,24.5224809 C16.7187663,25.0034815 16.5374905,25.4240028 16.2941992,25.845469 L12.166834,33 L12.5312939,33 C17.812146,33 22.1226951,28.7910077 22.1226951,23.5 C22.1217411,22.1770118 21.8784498,20.9145031 21.3928213,19.8324878 L21.3928213,19.8324878 Z M12.5914012,27.7685268 C11.377807,27.7685268 10.2243201,27.2270467 9.43529305,26.4455386 C9.13189451,26.1450313 8.88860322,25.844524 8.64626602,25.4835373 L8.52509742,25.3635233 L4.45688547,18.4490202 C3.54668983,19.8920223 3,21.6355317 3,23.5 C3,28.3704864 6.64173663,32.3385059 11.3768529,32.8790411 L14.6550838,27.2270467 C14.0482867,27.5880334 13.3193669,27.7685268 12.5914012,27.7685268 L12.5914012,27.7685268 Z M12.5914012,14 C9.43529305,14 6.64269072,15.5034815 4.8824067,17.8480056 L8.16063753,23.3790411 C8.22169887,23.4395205 8.22169887,23.5595345 8.22169887,23.6190689 L8.22169887,23.4385755 C8.22169887,21.3340794 9.79975294,19.5300905 11.8033282,19.2295832 L11.8643896,19.2295832 C12.2288495,19.1095693 12.5923553,19.1095693 12.9568152,19.1095693 L21.0302696,19.1095693 C19.4503073,16.1044962 16.2331378,14 12.5914012,14 Z M16.0509079,23.5 C16.0509079,25.4240028 14.4728538,26.9274843 12.5904471,26.9274843 C10.6479332,26.9274843 9.12998634,25.3644683 9.12998634,23.5 C9.12998634,21.6355317 10.7089945,20.0725157 12.5914012,20.0725157 C14.4728538,20.0120362 16.0509079,21.5759972 16.0509079,23.5 Z" id="Shape" fill="#FFFFFF" fill-rule="nonzero"></path>
    </g>
</svg>