<?xml version="1.0" encoding="UTF-8"?>
<svg width="100px" height="46px" viewBox="0 0 100 46" version="1.1" xmlns="http://www.w3.org/2000/svg" xmlns:xlink="http://www.w3.org/1999/xlink">
    <!-- Generator: Sketch 60 (88103) - https://sketch.com -->
    <title>LG</title>
    <desc>Created with Sketch.</desc>
    <g id="LG" stroke="none" stroke-width="1" fill="none" fill-rule="evenodd">
        <g id="Logo_LG" transform="translate(21.000000, 10.000000)" fill="#FFFFFF">
            <path d="M13.0290376,-3.55271368e-15 C20.2248515,-3.55271368e-15 26.057971,5.83080735 26.057971,13.0275781 C26.057971,20.2213258 20.2248515,26.057971 13.0290376,26.057971 C5.83384921,26.057971 1.11910481e-13,20.2213258 1.11910481e-13,13.0275781 C1.11910481e-13,5.83080735 5.83384921,-3.55271368e-15 13.0290376,-3.55271368e-15 Z M13.0290168,2.11774897 C7.01984042,2.11774897 2.12777525,7.01146973 2.12777525,13.0245029 C2.12777525,15.9361536 3.25749916,18.6750651 5.3150393,20.7329235 C7.38008454,22.7953689 10.1196494,23.927608 13.0290168,23.927608 C15.9392181,23.927608 18.6786787,22.7953689 20.7425773,20.7329235 C22.8005344,18.6750651 23.9307795,15.9361536 23.9307795,13.0245029 L23.9307795,12.527135 L23.4950676,12.5293242 L16.1477969,12.5293242 L16.1477969,13.5425119 L22.8955989,13.5425119 L22.8955989,13.6890848 L22.8757465,13.9370554 C22.4099831,18.9617324 18.1717928,22.9097291 13.0290168,22.9097291 C10.3904579,22.9097291 7.90992276,21.8815296 6.04115637,20.0146538 C4.17228574,18.1485077 3.14398472,15.6657338 3.14398472,13.0245029 C3.14398472,10.3836888 4.17228574,7.90091492 6.04115637,6.03393486 C7.83205749,4.24234793 10.1848087,3.2235887 12.7000528,3.14180249 L13.0290168,3.13646186 C13.1488897,3.13646186 13.427516,3.13948507 13.546555,3.14271675 L13.546555,2.12650582 L13.0290168,2.11774897 Z M51.7111391,5.04347826 C53.9530169,5.04347826 56.34388,5.61856446 57.7854548,7.48871373 L57.947515,7.71028847 L55.6180062,9.86584388 C54.7351954,8.73390949 53.6659275,8.14111664 51.7916227,8.14111664 C48.4198411,8.14111664 47.3497703,10.1082352 47.3497703,13.4489722 C47.3497703,16.9505625 48.473731,18.6763002 51.8463154,18.6763002 C52.8030201,18.6763002 53.8036579,18.4951227 54.3964232,18.2981467 L54.5476345,18.2441585 L54.5476345,15.3896187 L51.497988,15.3896187 L51.497988,12.3448235 L58,12.3448235 L58,20.2659389 C56.6624868,21.208224 54.2001098,21.8550725 51.6846457,21.8550725 C46.1988146,21.8550725 43.7101449,18.8918153 43.7101449,13.4216918 C43.7101449,7.92580359 46.4668591,5.04347826 51.7111391,5.04347826 Z M35.7736017,5.04347826 L35.7736017,18.581377 L43.7101449,18.581377 L43.7101449,21.8550725 L31.942029,21.8550725 L31.942029,5.04347826 L35.7736017,5.04347826 Z M13.5465862,7.30959858 L12.5115098,7.30959858 L12.5115098,18.7311298 L16.1410528,18.7311298 L16.1410528,17.7124169 L13.5465862,17.7124169 L13.5465862,7.30959858 Z M8.86971901,7.30324987 C8.01080362,7.30324987 7.30991199,8.00411016 7.30991199,8.86676353 C7.30991199,9.72681082 8.01080362,10.4278796 8.86971901,10.4278796 C9.73405477,10.4278796 10.4341125,9.72681082 10.4341125,8.86676353 C10.4341125,8.00411016 9.73405477,7.30324987 8.86971901,7.30324987 Z" id="Shape"></path>
        </g>
    </g>
</svg>