<?xml version="1.0" encoding="UTF-8"?>
<svg width="100px" height="46px" viewBox="0 0 100 46" version="1.1" xmlns="http://www.w3.org/2000/svg" xmlns:xlink="http://www.w3.org/1999/xlink">
    <!-- Generator: Sketch 56.3 (81716) - https://sketch.com -->
    <title>Roku</title>
    <desc>Created with Sketch.</desc>
    <g id="Roku" stroke="none" stroke-width="1" fill="none" fill-rule="evenodd">
        <path d="M34.9533679,21.225 C34.9533679,20.0333333 33.9274611,19.0583333 32.7305699,19.0583333 L31.6476684,19.0583333 L31.6476684,23.3375 L32.7305699,23.3375 C33.9274611,23.3916667 34.9533679,22.4166667 34.9533679,21.225 L34.9533679,21.225 Z M39.9689119,29.7833333 L35.9222798,29.7833333 L32.6735751,25.5041667 L31.5906736,25.5041667 L31.5906736,29.7833333 L28,29.7833333 L28,17 L33.1295337,17 C36.0932642,17 38.4870466,18.8958333 38.4870466,21.2791667 C38.4870466,22.7416667 37.5751295,23.9875 36.1502591,24.8 L39.9689119,29.7833333 L39.9689119,29.7833333 Z M44.015544,21.9833333 C43.0466321,21.9833333 42.2487047,23.2291667 42.2487047,24.7458333 C42.2487047,26.2625 43.0466321,27.5083333 44.015544,27.5083333 C44.984456,27.5083333 45.7823834,26.2625 45.7823834,24.7458333 C45.7823834,23.2291667 44.984456,21.9833333 44.015544,21.9833333 L44.015544,21.9833333 Z M49.5440415,24.7458333 C49.5440415,27.6166667 47.0932642,29.9458333 44.015544,29.9458333 C40.9948187,29.9458333 38.4870466,27.6166667 38.4870466,24.7458333 C38.4870466,21.875 40.9378238,19.5458333 44.015544,19.5458333 C47.0932642,19.5458333 49.5440415,21.875 49.5440415,24.7458333 L49.5440415,24.7458333 Z M57.9792746,19.7625 L53.8186528,23.7166667 L53.8186528,19.7625 L50.2279793,19.7625 L50.2279793,29.7833333 L53.8186528,29.7833333 L53.8186528,25.7208333 L58.1502591,29.7833333 L62.6528497,29.7833333 L57.1813472,24.5833333 L61.7409326,20.25 L61.7409326,26.2083333 C61.7409326,28.1583333 62.9948187,30 66.1295337,30 C67.611399,30 68.9792746,29.1875 69.6632124,28.4833333 L71.2590674,29.7833333 L72,29.7833333 L72,19.7625 L68.4093264,19.7625 L68.4093264,26.2625 C68.0103627,26.9125 67.4404145,27.3458333 66.5854922,27.3458333 C65.7305699,27.3458333 65.2746114,26.8583333 65.2746114,25.2333333 L65.2746114,19.7625 L57.9792746,19.7625 L57.9792746,19.7625 Z" fill="#FFFFFF" fill-rule="nonzero"></path>
    </g>
</svg>