<?xml version="1.0" encoding="UTF-8"?>
<svg width="100px" height="46px" viewBox="0 0 100 46" version="1.1" xmlns="http://www.w3.org/2000/svg" xmlns:xlink="http://www.w3.org/1999/xlink">
    <!-- Generator: Sketch 56.3 (81716) - https://sketch.com -->
    <title>Samsung</title>
    <desc>Created with Sketch.</desc>
    <g id="Samsung" stroke="none" stroke-width="1" fill="none" fill-rule="evenodd">
        <path d="M17.1109396,26.1076822 C16.5424832,24.5399431 12.6330537,23.8229372 12.1550336,21.3475596 C12.0387584,20.7386737 12.0516779,20.2549792 12.1291946,19.7143795 C12.4211745,17.7369227 14.020604,17.0227621 15.9791946,17.0227621 C17.534698,17.0227621 19.6870805,17.435325 19.6870805,20.0757277 L19.6870805,20.9293062 L16.9404027,20.9293062 L16.9404027,20.1781571 C16.9404027,19.5180565 16.5657383,19.0798862 15.9197651,19.0798862 C15.2324497,19.0798862 14.9921477,19.5038302 14.9146309,19.893631 C14.8780317,20.10458 14.8815509,20.3215939 14.9249664,20.5309696 C15.2376174,21.9507551 19.4131879,22.7075947 19.8782886,25.245568 C19.9247987,25.4987962 20.0229866,26.1845043 19.8886242,27.2315605 C19.627651,29.2545415 17.9894631,30 15.9998658,30 C13.9301678,30 12,29.1834099 12,26.4804115 L12,25.5471657 L14.9533893,25.5471657 L14.9533893,26.7222587 C14.9533893,27.3823594 15.3719799,27.8205297 16.0592953,27.8205297 C16.7931208,27.8205297 17.0411745,27.4079667 17.1316107,27.0039396 C17.1832886,26.7763187 17.2168792,26.4007441 17.1109396,26.1076822 Z M23.7825503,17.4097177 L28.6790268,17.4068724 L30.7073826,29.5276866 L27.7488255,29.5276866 L26.2837584,18.5307507 L26.221745,18.5307507 L24.7153356,29.5276866 L21.7412752,29.5276866 L23.7825503,17.4097177 Z M40.4098993,17.4097177 L44.8955369,17.4068724 L45.1384228,29.5276866 L42.3865772,29.5276866 L42.3168121,18.6360254 L42.2573826,18.6360254 L40.417651,29.5276866 L37.6244631,29.5276866 L35.7873154,18.6331801 L35.725302,18.6331801 L35.6581208,29.5276866 L32.9036913,29.5276866 L33.1465772,17.4097177 L37.6347987,17.4097177 L38.9887584,26.6738893 L39.0533557,26.6738893 L40.4098993,17.4097177 Z M52.8901007,26.0849201 C52.3216443,24.517181 48.4122148,23.8001751 47.9341946,21.3247975 C47.8179195,20.7159116 47.8308389,20.2322171 47.9083557,19.6916174 C48.2003356,17.7141606 49.7997651,17 51.7583557,17 C53.3138591,17 55.4662416,17.4125629 55.4662416,20.0529656 L55.4662416,20.9065441 L52.7195638,20.9065441 L52.7195638,20.1553951 C52.7195638,19.4952944 52.3448993,19.0571241 51.6989262,19.0571241 C51.0116107,19.0571241 50.7713087,19.4810681 50.6937919,19.8708689 C50.6571928,20.0818179 50.660712,20.2988318 50.7041275,20.5082075 C51.0167785,21.927993 55.192349,22.6848326 55.6574497,25.2228059 C55.7039597,25.4760341 55.8021477,26.1617422 55.6677852,27.2087984 C55.4068121,29.2317794 53.7686242,29.9772379 51.7790268,29.9772379 C49.7093289,29.9772379 47.7791611,29.1606478 47.7791611,26.4576494 L47.7791611,25.5244036 L50.7325503,25.5244036 L50.7325503,26.6994966 C50.7325503,27.3595973 51.1511409,27.7977676 51.8384564,27.7977676 C52.5722819,27.7977676 52.8203356,27.3852046 52.9107718,26.9811775 C52.9624497,26.7535566 52.9960403,26.3779821 52.8901007,26.0849201 Z M62.1275168,27.7124097 C62.892349,27.7124097 63.1274832,27.1319764 63.181745,26.8360692 C63.205,26.7051871 63.2075839,26.5287809 63.2075839,26.3722915 L63.2075839,17.4097177 L65.9930427,17.4097177 L65.9930427,26.0963012 C65.9935444,26.3621229 65.9849253,26.6278711 65.9671812,26.8929744 C65.7733893,29.1549573 64.1507047,29.8890348 62.1275168,29.8890348 C60.101745,29.8890348 58.4790604,29.1549573 58.2852685,26.8929744 C58.2775168,26.7734734 58.2568456,26.3182316 58.2594295,26.0963012 L58.2594295,17.4068724 L61.0448658,17.4068724 L61.0448658,26.3694463 C61.0422819,26.5287809 61.0474497,26.7051871 61.0707047,26.8360692 C61.1223826,27.1319764 61.3601007,27.7124097 62.1275168,27.7124097 Z M75.5844295,17.4097177 L78.3104362,17.4097177 L78.3104362,29.3996498 L74.3906711,29.3996498 L71.675,19.5578901 L71.6155705,19.5578901 L71.7654362,29.3996498 L69.0601007,29.3996498 L69.0601007,17.4097177 L73.142651,17.4097177 L75.6748658,26.921427 L75.7342953,26.921427 L75.5844295,17.4097177 Z M85.0802349,27.5872182 C85.8760738,27.5872182 86.1551342,27.0323922 86.2042282,26.7051871 C86.2274832,26.5714598 86.2300671,26.4007441 86.2300671,26.2499453 L86.2300671,24.4858831 L85.100906,24.4858831 L85.100906,22.721821 L89,22.721821 L89,25.9711097 C89,26.1987306 88.9948322,26.3637557 88.9612416,26.7677829 C88.7803691,28.9757058 87.0414094,29.7638433 85.0905705,29.7638433 C83.1397315,29.7638433 81.4033557,28.9757058 81.2198993,26.7677829 C81.1888926,26.3637557 81.1811409,26.1987306 81.1811409,25.9711097 L81.1811409,20.872401 C81.1811409,20.6561611 81.2069799,20.274896 81.227651,20.0757277 C81.4731208,17.8080543 83.1397315,17.0796673 85.0905705,17.0796673 C87.0414094,17.0796673 88.7519463,17.8023638 88.9534899,20.0728825 C88.9896644,20.459838 88.9793289,20.8695557 88.9793289,20.8695557 L88.9793289,21.2764281 L86.2042282,21.2764281 L86.2042282,20.5964106 C86.2042282,20.5964106 86.2042282,20.3118844 86.1706376,20.1354782 C86.1189597,19.8680236 85.9122483,19.2534471 85.0698993,19.2534471 C84.2688926,19.2534471 84.0337584,19.8367258 83.9743289,20.1354782 C83.9407383,20.2948129 83.9278188,20.5110527 83.9278188,20.7073758 L83.9278188,26.2471 C83.9278188,26.4007441 83.9329866,26.5714598 83.9536577,26.7080324 C84.0053356,27.0323922 84.284396,27.5872182 85.0802349,27.5872182 Z" id="Combined-Shape" fill="#FFFFFF" fill-rule="nonzero"></path>
    </g>
</svg>