<?xml version="1.0" encoding="UTF-8"?>
<svg width="100px" height="46px" viewBox="0 0 100 46" version="1.1" xmlns="http://www.w3.org/2000/svg" xmlns:xlink="http://www.w3.org/1999/xlink">
    <!-- Generator: Sketch 56.3 (81716) - https://sketch.com -->
    <title>Apple TV</title>
    <desc>Created with Sketch.</desc>
    <g id="Apple-TV" stroke="none" stroke-width="1" fill="none" fill-rule="evenodd">
        <g id="Group-8" transform="translate(31.000000, 14.000000)" fill="#FFFFFF" fill-rule="nonzero">
            <g id="Group-4" transform="translate(0.000000, 2.003732)">
                <path d="M22.4016486,4.54747351e-13 L22.4016486,2.6048516 L26.000602,2.6048516 L26.000602,3.53992653 L22.4016486,3.53992653 L22.4016486,11.2876902 C22.4016486,12.089183 22.5485447,12.6903026 22.8423368,13.091049 C23.1361289,13.4917954 23.576817,13.6921686 24.3112973,13.6921686 C24.6050894,13.6921686 24.8988816,13.6921686 25.1192256,13.6253776 C25.3395697,13.6253776 25.5599138,13.5585865 25.7068099,13.4917954 L25.8537059,14.3600793 C25.4130178,14.5604525 24.8254335,14.6272436 24.0909532,14.6272436 C23.503369,14.6272436 22.9892328,14.5604525 22.6219927,14.3600793 C22.2547525,14.1597061 21.8875124,13.9593329 21.6671683,13.6253776 C21.4468242,13.2914222 21.2999282,12.8906758 21.2264801,12.4899294 C21.1530321,12.022392 21.0795841,11.5548545 21.0795841,11.020526 L21.0795841,3.47313546 L18.9495913,3.47313546 L18.9495913,2.53806053 L21.0795841,2.53806053 L21.0795841,0.467537466 L22.4016486,4.54747351e-13 L22.4016486,4.54747351e-13 Z" id="Path"></path>
                <path d="M28.1305948,2.6048516 L31.141964,9.95186892 C31.362308,10.5529885 31.6561001,11.087317 31.8029962,11.5548545 C32.0233403,12.089183 32.1702363,12.5567205 32.3905804,13.091049 L32.4640285,13.091049 C32.6109245,12.6235116 32.8312686,12.089183 33.0516127,11.6216456 C33.2719568,11.087317 33.4923009,10.5529885 33.7126449,9.95186892 L36.7240141,2.6048516 L38.1195266,2.6048516 L32.9047166,14.4936614 L31.8029962,14.4936614 L26.8085303,2.6048516 L28.1305948,2.6048516 Z" id="Path"></path>
                <path d="M7.71204296,2.8052248 C8.29962719,2.8052248 9.47479564,2.003732 11.0172042,2.003732 C13.5878852,2.003732 14.6161576,3.67350866 14.6161576,3.67350866 C14.6161576,3.67350866 12.6330608,4.60858359 12.6330608,6.87947985 C12.6330608,9.41754038 15.1302938,10.2858242 15.1302938,10.2858242 C15.1302938,10.2858242 13.3675411,14.7608257 11.0172042,14.7608257 C9.91548381,14.7608257 9.1075555,14.092915 7.93238704,14.092915 C6.75721859,14.092915 5.65549817,14.7608257 4.84756986,14.7608257 C2.71757704,14.7608257 0,10.5529885 0,7.14664412 C0,3.80709079 2.27688887,2.07052306 4.40688169,2.07052306 C5.87584226,2.07052306 6.97756268,2.8052248 7.71204296,2.8052248 Z" id="Path"></path>
            </g>
            <path d="M8.29962719,1.46940346 C9.54824366,2.27373675e-13 11.1641003,2.27373675e-13 11.1641003,2.27373675e-13 C11.1641003,2.27373675e-13 11.3844444,1.33582133 10.2092759,2.67164266 C8.88721141,4.07425506 7.49169888,3.87388186 7.49169888,3.87388186 C7.49169888,3.87388186 7.27135479,2.73843373 8.29962719,1.46940346 L8.29962719,1.46940346 Z" id="Path"></path>
        </g>
    </g>
</svg>