<?xml version="1.0" encoding="UTF-8"?>
<svg width="100px" height="46px" viewBox="0 0 100 46" version="1.1" xmlns="http://www.w3.org/2000/svg" xmlns:xlink="http://www.w3.org/1999/xlink">
    <!-- Generator: Sketch 56.3 (81716) - https://sketch.com -->
    <title>Android</title>
    <desc>Created with Sketch.</desc>
    <g id="Android" stroke="none" stroke-width="1" fill="none" fill-rule="evenodd">
        <path d="M8,25.2943018 C8,24.3531797 8.15897147,23.4750487 8.47691441,22.6599087 C8.79485736,21.8449315 9.23991179,21.1347766 9.81224193,20.5297696 C10.3845721,19.9247625 11.0692333,19.4499696 11.8662256,19.1055534 C12.6632179,18.7609744 13.5364114,18.5886036 14.4859703,18.5886036 C15.2067614,18.5886036 15.8616976,18.6937514 16.4509431,18.9037216 C17.0401886,19.1138545 17.6103838,19.4584335 18.1613645,19.9372957 L18.1613645,18.8407306 L21.3917042,18.8407306 L21.3917042,31.7480358 L18.1613645,31.7480358 L18.1613645,30.6513079 C17.6103838,31.1303329 17.0401886,31.4749118 16.4509431,31.684882 C15.8616976,31.8950149 15.2067614,32 14.4859703,32 C13.5364114,32 12.6630537,31.8277919 11.8662256,31.483213 C11.0692333,31.1387968 10.3845721,30.6640038 9.81224193,30.0589968 C9.23991179,29.453827 8.79485736,28.7438348 8.47691441,27.9286949 C8.15897147,27.1137177 8,26.2355866 8,25.2943018 Z M14.9057339,28.9874979 C15.1601211,28.9874979 15.4271537,28.9603157 15.7069961,28.9056258 C15.9866742,28.8509359 16.2686515,28.7584839 16.5527637,28.6282699 C16.8367117,28.4980558 17.1144191,28.3237317 17.3857217,28.1051349 C17.6570242,27.8867008 17.9155171,27.6178088 18.1613645,27.2984588 L18.1613645,23.2901448 C17.9155171,22.9709576 17.6570242,22.7041815 17.3857217,22.4898166 C17.1142549,22.2756145 16.8367117,22.1011277 16.5525995,21.9666817 C16.2684872,21.8322357 15.9866742,21.7376677 15.7068318,21.6831406 C15.4271537,21.6284507 15.1599568,21.6012685 14.9057339,21.6011057 C14.4054992,21.6011057 13.9369604,21.6935577 13.5004458,21.8784616 C13.0636027,22.0633656 12.6842389,22.3218405 12.3621903,22.6537236 C12.0399775,22.9856066 11.7877252,23.3764116 11.6054336,23.8259756 C11.4231419,24.2755396 11.3319961,24.7649817 11.3319961,25.2943018 C11.3319961,25.8237847 11.4231419,26.3132268 11.6054336,26.7627908 C11.7877252,27.2123548 12.0399775,27.6031597 12.3621903,27.9350428 C12.6844032,28.2670886 13.0637669,28.5254008 13.5002815,28.7103047 C13.9371246,28.8950459 14.4054992,28.9874979 14.9057339,28.9874979 L14.9057339,28.9874979 Z M29.4667324,21.7749415 C27.9361393,21.7860097 26.6063955,22.843185 26.6063955,24.4121016 L26.6063955,31.7480358 L23.3760557,31.7480358 L23.3760557,24.5003216 C23.3941207,21.4780534 26.0348864,18.6292955 29.4204204,18.5886036 L29.5107451,18.5886036 C32.8962791,18.6292955 35.5370449,21.4780534 35.5551098,24.5003216 L35.5551098,31.7480358 L32.3247701,31.7480358 L32.3247701,24.4121016 C32.3247701,22.843185 30.9951905,21.7860097 29.4644332,21.7749415 L29.4667324,21.7749415 Z M37.0842248,25.2943018 C37.0842248,24.3531797 37.2431963,23.4750487 37.5611393,22.6599087 C37.8790822,21.8449315 38.3243009,21.1347766 38.8964668,20.5297696 C39.4687969,19.9247625 40.1534581,19.4499696 40.9504505,19.1055534 C41.7474428,18.7609744 42.6206363,18.5886036 43.5703594,18.5886036 C44.2909863,18.5886036 44.9480574,18.6937514 45.5415728,18.9037216 C46.1350882,19.1138545 46.7031485,19.4542015 47.2457536,19.9247625 L47.2457536,14.9710944 L50.4760933,14.9710944 L50.4760933,31.7480358 L47.2457536,31.7480358 L47.2457536,30.6640038 C46.7031485,31.142866 46.1350882,31.485329 45.5415728,31.6912299 C44.9480574,31.8971309 44.2909863,32 43.5703594,32 C42.6206363,32 41.7474428,31.8277919 40.9504505,31.483213 C40.1534581,31.1387968 39.4687969,30.6640038 38.8964668,30.0589968 C38.3243009,29.4539897 37.8790822,28.7438348 37.5613035,27.9286949 C37.2431963,27.1137177 37.0842248,26.2355866 37.0842248,25.2943018 L37.0842248,25.2943018 Z M43.9899587,28.9874979 C44.2443459,28.9874979 44.5113786,28.9603157 44.7912209,28.9056258 C45.070899,28.8509359 45.3528763,28.7584839 45.6369886,28.6282699 C45.9209366,28.4980558 46.198644,28.3237317 46.4699465,28.1051349 C46.7412491,27.8867008 46.9997419,27.6178088 47.2457536,27.2984588 L47.2457536,23.2901448 C46.9997419,22.9709576 46.7412491,22.7041815 46.4699465,22.4898166 C46.198644,22.2756145 45.9209366,22.1011277 45.6369886,21.9666817 C45.3528763,21.8322357 45.070899,21.7376677 44.7912209,21.6831406 C44.5113786,21.6284507 44.2443459,21.6012685 43.9899587,21.6011057 C43.4897241,21.6011057 43.0213495,21.6935577 42.5846706,21.8784616 C42.1479917,22.0633656 41.7684638,22.3218405 41.4465794,22.6537236 C41.1242023,22.9856066 40.8719501,23.3764116 40.6896584,23.8259756 C40.5073667,24.2755396 40.4162209,24.7649817 40.4163849,25.2943018 C40.4163849,25.8237847 40.5073667,26.3132268 40.6896584,26.7627908 C40.8719501,27.2123548 41.1242023,27.6031597 41.4464152,27.9350428 C41.768628,28.2670886 42.1479917,28.5254008 42.5846706,28.7103047 C43.0213495,28.8950459 43.4897241,28.9874979 43.9899587,28.9874979 L43.9899587,28.9874979 Z M65.6033455,28.9874979 C66.0866648,28.9874979 66.542394,28.8971619 66.970533,28.7164899 C67.3920406,28.5403778 67.7728723,28.2808997 68.0897382,27.9539238 C68.4076811,27.6262727 68.6577984,27.2375838 68.8400901,26.7880198 C69.0223818,26.3384557 69.1135276,25.8407125 69.1135276,25.2943018 C69.1135276,24.7565178 69.0202468,24.2628437 68.8336852,23.8132797 C68.6471237,23.3637157 68.3927365,22.9750267 68.0706879,22.6473756 C67.7513898,22.3216436 67.3712786,22.0605004 66.9514827,21.8784616 C66.5276136,21.6935577 66.078125,21.6012685 65.6033455,21.6011057 C65.1201905,21.6011057 64.6644613,21.6935577 64.236158,21.8784616 C63.8152365,22.0584107 63.4347904,22.3198223 63.1171171,22.6473756 C62.7991742,22.9750267 62.5469219,23.3637157 62.3603604,23.8132797 C62.1737988,24.2628437 62.080518,24.7565178 62.080518,25.2944646 C62.080518,25.8405498 62.1716639,26.3384557 62.3539555,26.7880198 C62.5362472,27.2375838 62.7863645,27.6262727 63.1044717,27.9539238 C63.4212835,28.2808885 63.8020592,28.5403666 64.2235126,28.7164899 C64.6516517,28.8971619 65.1116507,28.9874979 65.6033455,28.9874979 Z M65.6033455,32 C64.6623264,32 63.7763232,31.8320239 62.945336,31.4959088 C62.1143487,31.1597938 61.3874812,30.6913488 60.764405,30.0904109 C60.1411646,29.4896358 59.6493056,28.7794809 59.2889921,27.9602718 C58.9286787,27.1408998 58.7486862,26.2523517 58.7486862,25.2943018 C58.7486862,24.3616436 58.9286787,23.4875818 59.2889921,22.6726046 C59.6494698,21.8574646 60.1390297,21.1474725 60.7580002,20.5424655 C61.3768065,19.9372957 62.1038382,19.4605494 62.9389311,19.1117386 C63.7741883,18.7630904 64.6623264,18.5886036 65.6033455,18.5886036 C66.5443647,18.5886036 67.4305321,18.7630904 68.2613551,19.1117386 C69.0923423,19.4605494 69.8172391,19.9372957 70.4360454,20.5424655 C71.0551802,21.1474725 71.5445758,21.8576274 71.9050535,22.6726046 C72.2653669,23.4877446 72.4453594,24.3616436 72.4453594,25.2943018 C72.4453594,26.2523517 72.2653669,27.1408998 71.9050535,27.9602718 C71.5447401,28.7794809 71.052881,29.4896358 70.4298048,30.0904109 C69.8065644,30.6913488 69.0816676,31.1597938 68.2549503,31.4959088 C67.4283971,31.8320239 66.5445289,32 65.6033455,32 Z M75.5080236,17.8301183 C75.2462462,17.8301183 74.9989208,17.779486 74.7657188,17.6780818 C74.5369508,17.5796238 74.3289226,17.4393729 74.1524962,17.2646522 C73.9761983,17.0897402 73.83469,16.883505 73.7353604,16.6567153 C73.6329109,16.4247999 73.5806577,16.1741724 73.5819484,15.9210059 C73.5819484,15.6617172 73.6330471,15.4144733 73.7353604,15.1794369 C73.8336093,14.9502807 73.9752016,14.7418788 74.1524962,14.5654777 C74.3289888,14.3907611 74.5370698,14.2505121 74.7658831,14.152048 C74.999885,14.0505319 75.2527542,13.998744 75.5081879,14 C75.7698011,14 76.0192614,14.0506438 76.2564048,14.152048 C76.4876115,14.2494311 76.6978804,14.3897645 76.8758681,14.5654777 C77.0531564,14.7418839 77.1947478,14.9502846 77.2930039,15.1794369 C77.3953172,15.4144733 77.4463917,15.6617172 77.4463917,15.9211687 C77.4463917,16.1804574 77.3953172,16.4257482 77.2930039,16.6568781 C77.193653,16.8836079 77.052146,17.089786 76.8758681,17.2646522 C76.6978984,17.4403871 76.4876251,17.5807235 76.2564048,17.6780818 C76.0201554,17.7792516 75.7653807,17.8310061 75.5080236,17.8301183 L75.5080236,17.8301183 Z M73.8926896,18.8407306 L77.1230293,18.8407306 L77.1230293,31.7480358 L73.8926896,31.7480358 L73.8926896,18.8407306 Z M78.6082958,25.2943018 C78.6082958,24.3531797 78.7672673,23.4750487 79.0852102,22.6599087 C79.4031532,21.8449315 79.8482076,21.1347766 80.4205377,20.5297696 C80.9928679,19.9247625 81.6775291,19.4499696 82.4745214,19.1055534 C83.2713495,18.7609744 84.1447072,18.5886036 85.0942661,18.5886036 C85.814893,18.5886036 86.4721284,18.6937514 87.0654795,18.9037216 C87.6589949,19.1138545 88.2270552,19.4542015 88.7696603,19.9247625 L88.7696603,14.9710944 L92,14.9710944 L92,31.7480358 L88.7696603,31.7480358 L88.7696603,30.6640038 C88.2270552,31.142866 87.6589949,31.485329 87.0654795,31.6912299 C86.4719642,31.8971309 85.814893,32 85.0942661,32 C84.1447072,32 83.2713495,31.8277919 82.4745214,31.483213 C81.6775291,31.1387968 80.9928679,30.6640038 80.4205377,30.0589968 C79.8482076,29.4539897 79.4031532,28.7438348 79.0852102,27.9286949 C78.7672673,27.1137177 78.6082958,26.2355866 78.6082958,25.2943018 L78.6082958,25.2943018 Z M85.5140297,28.9874979 C85.7682526,28.9874979 86.0354495,28.9603157 86.3151276,28.9056258 C86.59497,28.8509359 86.876783,28.7584839 87.1608953,28.6282699 C87.4450075,28.4980558 87.7225507,28.3237317 87.9938532,28.1051349 C88.2651558,27.8867008 88.5238129,27.6178088 88.7696603,27.2984588 L88.7696603,23.2901448 C88.5238129,22.9709576 88.2651558,22.7041815 87.9938532,22.4898166 C87.7225507,22.2756145 87.4450075,22.1011277 87.1608953,21.9666817 C86.876783,21.8322357 86.59497,21.7376677 86.3151276,21.6831406 C86.0354495,21.6284507 85.7682526,21.6012685 85.5140297,21.6011057 C85.013795,21.6011057 84.5452562,21.6935577 84.1087416,21.8784616 C83.6718985,22.0633656 83.2925347,22.3218405 82.9704861,22.6537236 C82.6482733,22.9856066 82.396021,23.3764116 82.2137294,23.8259756 C82.0314377,24.2755396 81.9402919,24.7649817 81.9402919,25.2943018 C81.9402919,25.8237847 82.0314377,26.3132268 82.2137294,26.7627908 C82.396021,27.2123548 82.6482733,27.6031597 82.9704861,27.9350428 C83.2926989,28.2670886 83.6720627,28.5254008 84.1085773,28.7103047 C84.5454204,28.8950459 85.013795,28.9874979 85.5140297,28.9874979 L85.5140297,28.9874979 Z M58.4407611,21.7362028 C56.2759244,21.7362028 55.3212744,22.843185 55.3212744,24.4121016 L55.3212744,31.7480358 L52.0909347,31.7480358 L52.0909347,24.5003216 C52.1089996,21.4780534 53.8704955,18.5068943 58.4407611,18.5068943 L58.4407611,21.7362028 Z" fill="#FFFFFF" fill-rule="nonzero"></path>
    </g>
</svg>