<svg width="1774" height="220" viewBox="0 0 1774 220" fill="none" xmlns="http://www.w3.org/2000/svg">
<g clip-path="url(#clip0_4302_33474)">
<path d="M1335 119.701C1335 79.2008 1350 53.7008 1367.8 51.0008C1349.9 29.0008 1320.1 17.3008 1293 17.3008C1263.1 17.3008 1236.3 30.3008 1217.8 50.8008C1235.4 54.3008 1241.4 69.1008 1241.4 92.0008H1219.8C1219.8 78.5008 1217 71.5008 1209 71.5008C1205.4 71.5008 1202.6 73.3008 1201 76.4008C1200.8 76.9008 1200.5 77.4008 1200.3 78.0008C1199.7 79.7008 1199.3 81.7008 1199.3 84.0008C1199.3 112.001 1245.3 110.601 1245.3 153.601C1245.3 170.401 1232.4 186.101 1217.9 186.101C1236.9 206.901 1263 219.401 1292.9 219.401C1322.9 219.401 1348.3 207.101 1366.7 187.401C1349.8 183.001 1335 158.501 1335 119.701ZM1325.4 186.401H1302.3V128.901H1277.3V186.401H1254.1V53.7008H1277.2V107.101H1302.2V53.7008H1325.3L1325.4 186.401ZM1223 151.301C1223 134.201 1208 130.901 1192 116.401C1191.8 145.701 1200.8 165.201 1212 165.201C1218.4 165.301 1223 159.601 1223 151.301ZM1376.3 72.9008C1364.4 72.9008 1357.9 95.3008 1357.9 117.601C1357.9 141.101 1364.1 163.901 1376.3 163.901C1386.4 163.901 1394 142.301 1394 118.401C1394 107.401 1390.4 72.9008 1376.3 72.9008ZM1725 129.501H1746.9V108.501H1725V75.5008H1754.7V55.5008H1701.4V184.601H1756V164.701H1725V129.501ZM1767.7 172.801C1764.4 172.801 1761.8 175.301 1761.8 178.701C1761.8 182.101 1764.3 184.601 1767.7 184.601C1771.1 184.601 1773.6 182.101 1773.6 178.701C1773.6 175.301 1771.1 172.801 1767.7 172.801ZM1767.7 183.501C1765 183.501 1763 181.401 1763 178.701C1763 176.001 1765.1 173.801 1767.7 173.801C1770.3 173.801 1772.5 175.901 1772.5 178.701C1772.5 181.501 1770.4 183.501 1767.7 183.501ZM1482.1 131.301H1481.7L1471.4 55.5008H1450.2L1439 131.301H1438.6L1430.3 55.5008H1408.9L1426.1 184.601H1446.8L1458.4 102.901H1458.8L1470 184.601H1491.4L1505.6 75.5008H1525.6V184.601H1549.2V75.5008H1570.8V184.601H1594.4V55.6008H1491.5L1482.1 131.301ZM1770.4 177.501C1770.4 176.201 1769.4 175.501 1768.1 175.501H1765.5V182.001H1766.6V179.501H1767.4L1769.1 182.001H1770.4L1768.7 179.501C1769.6 179.301 1770.4 178.601 1770.4 177.501ZM1768 178.601H1766.6V176.301H1768C1768.7 176.301 1769.3 176.601 1769.3 177.401C1769.4 178.201 1768.8 178.601 1768 178.601ZM1648.1 121.701H1647.7L1637.2 55.5008H1605.9V184.601H1623.3V90.0008H1623.7L1639.5 184.601H1652.5L1668.5 90.0008H1668.9V184.601H1689.9V55.6008H1659.3L1648.1 121.701Z" fill="white"/>
<path d="M242.9 55.8C242.9 18.1 203 0 155.6 0C104.8 0 58.3004 22.5 41.2004 57.4C36.5004 66.6 34.0004 76.9 34.0004 87.4C33.8004 96.5 36.3004 105.4 41.2004 112.9C48.5004 123.7 61.6004 130.5 80.8004 130.5C104.3 130.5 123 117.6 123 95.1C123 95.1 123.3 88.8 116 88.8C110.1 88.8 108.5 93 108.7 95.1C109.6 112.7 99.1004 126.8 80.5004 126.8C59.6004 126.8 50.9004 109 50.9004 90C50.9004 51.1 80.2004 25.3 110.7 14.1C125 8.7 140 6.1 155.3 6.3C189.8 6.3 218.1 19.6 218.1 55.1C218.1 84.7 193.2 110 163.3 112.3L164.5 108.3C170.6 86.5 178.1 62.6 190.3 45C191 43.9 192.2 42.2 193.6 40.5L191.9 38.4C189.3 40 186.8 41.7 184.4 43.6C127.2 88.2 125.5 213.8 49.3004 213.8C46.7004 213.8 44.1004 213.6 41.5004 213.3C25.6004 210.7 17.3004 200 17.3004 185.2C17.3004 182.2 18.4004 178.2 18.4004 176C18.6004 171.8 15.1004 168.2 10.9004 168.2H9.80038C3.00038 168.2 0.200379 173.6 0.00037852 181.3C-0.499621 203.4 15.9004 216.3 41.2004 218.8C44.0004 219 46.8004 219.1 49.7004 219.1C109.2 219.1 145.6 174.1 161.1 119.5C168.9 118.6 176.8 116.9 184.3 114.6C211.9 106.9 242.9 88.4 242.9 55.8Z" fill="white"/>
<path d="M809.3 68.9004H788.4L783.7 79.9004L775.5 98.4004H765.7L762.7 104.7H772.8L760.6 131.7C751.9 150.7 738.3 169.4 730.4 169.4C728.7 169.4 727.6 168.7 727.6 167C727.6 165.3 728.1 163.7 730 158.8C732.4 153 736.5 144.7 739.4 138.6C743.8 129.7 750.7 115.9 750.7 109.1C750.7 102.3 746.3 96.9004 737.8 96.9004C728.2 96.9004 719.5 102.7 711.5 111L716.7 98.4004H697L681 135C674.5 147.9 661.5 169.4 653.3 169.4C651.6 169.4 650.9 168.3 650.9 166.6C651.1 165 651.4 163.6 652.1 162.1C652.8 160.6 662.4 138 662.4 138L679.9 98.0004H658.6L641.7 136.9C636.5 148.9 623.2 169.3 614.7 169.3C613.3 169.5 611.9 168.4 611.7 166.9V166.2C611.7 164.1 613.3 160.3 614.5 157.5L623.4 138L641.7 98.0004H620.6L616.4 107.1C613.3 113.2 608 120.4 599.7 120.4C595.7 120.4 593.8 118.8 592.9 117.3C591.7 103.9 583.1 96.7004 570.6 96.7004C553.2 96.7004 540.8 107 532.6 119.5C527.2 128.2 523 137.5 520 147.2C512.5 159.6 504.7 169.2 498.4 169.2C496.8 169.2 495.8 168.3 495.8 166.2C495.8 164.1 497.9 159.4 498.6 157.7L512.4 128.4C516.2 119.3 518.9 113.4 518.9 107.5C518.9 101.2 514.5 96.7004 507.4 96.7004C497.5 96.7004 486.7 102.5 478.1 111.9C478.5 110.3 478.5 108.9 478.5 107.4C478.5 100.4 475 96.8004 467.9 96.8004C458.8 96.8004 449.4 102.2 440.9 112L446.5 98.4004H427.3L411.1 135C403.4 152.3 391.1 169.4 384.1 169.4C382.5 169.4 381.5 168.5 381.5 166.4C381.5 163.1 385.2 154.9 386.6 151.6L408.1 103C409.7 99.3004 399.4 97.1004 386.3 97.1004C373.2 97.1004 359.1 103.7 349 112.3C341.9 118.2 336.6 121.2 334 121.2C332.6 121.2 332.1 120.5 332.1 119.6C332.1 116.6 339.2 108.3 339.2 101.8C339.2 98.8004 337.6 96.9004 333.6 96.9004C325.9 96.9004 316.9 104.2 310.2 111.9L315.8 98.5004H297L280.8 135.1C272.8 152 260 170 253.1 170C251.5 170 250.5 169.1 250.5 167C250.5 163.7 254 155.7 255.9 151.5L277.4 102.7C279 99.0004 268.7 96.8004 255.6 96.8004C236.2 96.8004 217.4 109.9 207.5 123.3C196.5 137.8 189 153.1 188.8 165.7C188.6 175.8 193.9 182.1 204.3 182.1C216 182.1 225.4 172.9 230.8 165.9C230.4 167.3 230.3 168.7 230.1 170.1C230.1 177.1 232.9 182.1 241.4 182.1C248.9 182.1 258.8 175.8 266.9 165.9L260.4 180.7H280.8L300.9 135.2C307.5 120.4 315 112.7 317.1 112.7C317.8 112.7 318.2 113.1 318.2 113.6C318.2 115.2 315.1 119.4 315.1 123.2C315.1 127 317.2 130 322.8 130C327.2 130 332 127.9 336.4 125.1C326.1 139.1 319.1 153.7 319.1 165.7C318.9 175.8 324.2 182.1 334.6 182.1C345.6 182.1 355.9 171.6 361.5 164.7C361.3 166.3 361.1 167.8 361.1 169.6C361.1 176.4 364.9 182.2 372.8 182.2C381.5 182.2 388.5 176.8 397.2 166.2L390.7 180.8H411.6L430.8 137.4C439.2 118.6 450.5 108.5 456.1 108.5C457.5 108.3 458.7 109.4 458.9 110.8V111.3C458.7 113.4 458 115.5 457.2 117.4L429.6 181.1H451L470.5 136.8C478.9 117.8 488.1 108.6 495.1 108.6C497.2 108.6 498.1 109.7 498.1 111.9C497.9 114.3 497.2 116.8 496.2 118.9L477.4 159C475.7 162.8 474.6 167 474.3 171.2C474.3 177.3 477.6 182.7 487 182.7C499.2 182.7 508.5 173.5 518.9 159.7V162.7C519.8 173.7 525.9 183.3 542.1 183.3C561.3 183.3 576.8 170 586.2 149C589.7 141.5 592.1 133.7 593 125.4C595.1 126.5 597.5 127 599.8 126.8C602.9 126.8 606.1 126.1 608.9 124.5L605.6 131.6C601.8 139.6 597.6 148.5 594.3 156C592.2 160.4 591 165.2 590.6 170.1C590.6 177.6 594.8 183 603.3 183C611.8 183 623.5 175 631.9 163.6H632.1C631.6 165.9 631.2 168.3 631.2 170.7C631.2 177 633.1 182.9 641.8 182.9C651.9 182.9 659.8 175.6 667.4 166.3L660.9 180.9H682L698.9 142.5C708.5 120.9 718.1 107.8 727 107.8C728.6 107.8 729.8 108.8 730 110.4V110.9C730 114.6 724.8 124.5 720.1 134.4C715.7 143.5 712.4 150.4 710.2 155.9C708.1 160.4 706.9 165.3 706.5 170.4C706.5 177 710.2 182.1 718.4 182.1C730.6 182.1 743 170.2 749.6 161.4C748 165.8 747.3 170.1 747.2 174.7C747.2 186.9 754.5 193 764.8 193C771.6 193 778.2 190.7 783.8 186.7C791.8 181.1 798.3 172.7 803.7 165.1L800 161.6C794.9 168.8 789.4 175.6 783.6 179.7C780.5 182.3 776.8 183.7 772.8 183.9C768.4 183.9 765.7 181.6 765.7 176.1C765.7 170.6 768.3 163 772.3 152.9C772.5 152.7 778.2 139.8 783.6 127.4C788.1 116.9 792.7 106.8 793.5 104.7H807.3L810.1 98.4004H796.5L809.3 68.9004ZM214.5 169.5C211.5 169.5 209.4 168.5 209.4 164.6C209.6 154.3 218.1 136 228.8 121.4C236.3 111.3 246.1 103.8 256.5 103.8L243.2 133.4C233.3 155.7 222.5 169.5 214.5 169.5ZM344.9 169.5C341.9 169.5 339.8 168.5 339.7 164.6C339.9 154.3 348.4 136 359.1 121.4C366.6 111.3 376.4 103.8 386.8 103.8L373.5 133.4C363.4 156.2 353.1 169.5 344.9 169.5ZM576.5 111.8C576 123.1 566 150.5 554.4 166.9C549.7 173.5 545.7 175.4 542.2 175.4C537.3 175.4 535.9 171.4 536.6 165.5C537.6 155.2 546.2 131.1 558.1 114.6C563.5 107.1 567.2 104 571.4 104C575.6 104 576.7 107.4 576.5 111.8Z" fill="white"/>
<path d="M902 98.3L921.1 54H898.4L879.2 98.3H830.9L822.9 116.9H871.2L852 161.3H874.7L893.9 116.9H942.2L950.3 98.3H902Z" fill="white"/>
<path d="M1023.2 109.499L1017.9 131.199H1010.8L1002.2 98.7988H1009.4L1014.8 122.599L1020.6 98.7988H1025.8L1031.7 122.599L1037.1 98.7988H1044.2L1035.6 131.199H1028.5L1023.2 109.499Z" fill="white"/>
<path d="M1062.2 131.199H1055.5V98.6992H1062.2V131.199Z" fill="white"/>
<path d="M1082.8 104.399H1073.4V98.6992H1098.8V104.399H1089.4V131.199H1082.7L1082.8 104.399Z" fill="white"/>
<path d="M1137.9 98.6992V131.099H1131.2V116.699H1116.7V131.099H1110V98.6992H1116.7V110.899H1131.2V98.6992H1137.9Z" fill="white"/>
</g>
<defs>
<clipPath id="clip0_4302_33474">
<rect width="1773.6" height="219.3" fill="white"/>
</clipPath>
</defs>
</svg>
